<?xml version="1.0" encoding="utf-8"?>
<svg version="1.1" xmlns="http://www.w3.org/2000/svg" width="768" height="768" viewBox="0 0 768 768">
<path d="M758.6 713.4l-186.8-186.8c-1.4-2.6-3.2-4.8-5.4-7-2-2-4.2-3.6-6.6-5l-85.2-85.2c0 0 0 0-0.2-0.2 0 0-0.2-0.2-0.2-0.2l-163.6-163.6c0 0 0 0-0.2-0.2l-256-256c-12.4-12.4-32.8-12.4-45.2 0s-12.4 32.8 0 45.2l246.8 246.8v82.8c0 70.6 57.4 127.8 128 127.8 23.2 0 45.6-6.2 65-17.6l47.2 47.2c-30 21.6-65.4 34.2-102.8 36-3-1-6.2-1.4-9.4-1.4s-6.4 0.4-9.4 1.4c-101.6-5-182.6-89-182.6-191.8v-1.6c0 0 0-0.2 0-0.2v-64c0-17.6-14.4-32-32-32s-32 14.4-32 32v65.8c0 130.4 97.8 238.2 224 254v64.4h-96c-17.6 0-32 14.4-32 32s14.4 32 32 32h256c17.6 0 32-14.4 32-32s-14.4-32-32-32h-96v-64.4c46.2-5.8 89.4-23.8 126-52.6l171.4 171.4c6.2 6.2 14.4 9.4 22.6 9.4s16.4-3.2 22.6-9.4c12.6-12.2 12.6-32.6 0-45zM384 448c-35.2 0-64-28.6-64-64v-18.8l80.6 80.6c-5.4 1.4-11 2.2-16.6 2.2z"></path>
<path d="M283.4 139.6c17.4 3.6 34.2-7.4 37.8-24.8 6.4-29.6 32.6-50.8 62.8-50.8 35.2 0 64 28.8 64 64v170.8c0 17.6 14.4 32 32 32s32-14.4 32-32v-170.8c0-70.6-57.4-128-128-128-60.2 0-113 42.8-125.2 101.8-3.8 17.2 7.4 34 24.6 37.8z"></path>
<path d="M598.4 456.2c2 0.4 4 0.6 5.8 0.6 15.2 0 28.6-10.8 31.4-26.2 2.8-15.2 4.2-31 4.2-46.6v-64c0-17.6-14.4-32-32-32s-32 14.4-32 32v64c0 11.8-1 23.6-3.2 35-3 17.4 8.4 34 25.8 37.2z"></path>
</svg>
