<?xml version="1.0" encoding="utf-8"?>
<svg version="1.1" xmlns="http://www.w3.org/2000/svg" width="768" height="768" viewBox="0 0 768 768">
  <path d="M384 512c70.6 0 128-57.4 128-128v-256c0-70.6-57.4-128-128-128s-128 57.4-128 128v256c0 70.6 57.4 128 128 128zM320 128c0-35.2 28.8-64 64-64s64 28.8 64 64v256c0 35.2-28.8 64-64 64s-64-28.8-64-64v-256z"></path>
  <path d="M608 288c-17.6 0-32 14.4-32 32v64c0 105.8-86.2 192-192 192s-192-86.2-192-192v-64c0-17.6-14.4-32-32-32s-32 14.4-32 32v64c0 130.4 97.8 238.2 224 254v66h-96c-17.6 0-32 14.4-32 32s14.4 32 32 32h256c17.6 0 32-14.4 32-32s-14.4-32-32-32h-96v-66c126.2-15.8 224-123.6 224-254v-64c0-17.6-14.4-32-32-32z"></path>
</svg>
